<svg width="24" height="24" viewBox="0 0 24 24" fill="none" xmlns="http://www.w3.org/2000/svg">
<g clip-path="url(#clip0_33_1575)">
<path d="M16.3032 17.5971C16.3913 17.3909 16.3388 16.3559 16.3819 16.0877C16.3894 16.0465 16.3519 16.0071 16.3107 16.0109C16.0388 16.0334 15.39 16.309 15.1782 16.3821C14.64 16.5659 14.0925 16.9052 13.8263 17.4246C13.6707 17.7302 13.5375 18.8627 13.6219 18.9527C13.7063 19.0427 14.8463 18.9977 15.1613 18.8646C15.6994 18.6377 16.0782 18.1202 16.3032 17.5971Z" fill="#B5E1EA"/>
<path d="M16.8112 18.1444C16.8993 17.9382 17.2275 17.3138 17.2706 17.0457C17.2781 17.0044 17.2406 16.965 17.1993 16.9688C16.9275 16.9913 15.8981 16.8563 15.6862 16.9294C15.1481 17.1132 14.6006 17.4525 14.3343 17.9719C14.1787 18.2775 14.0456 19.41 14.13 19.5C14.2143 19.59 15.3543 19.545 15.6693 19.4119C16.2075 19.1869 16.5862 18.6675 16.8112 18.1444Z" fill="#B5E1EA"/>
<path d="M15.3844 15.3245C15.3825 15.2964 15.3525 15.2776 15.33 15.2908L14.4825 15.8233C14.4825 15.8233 12.81 18.1108 13.1475 18.4745C13.2731 18.6095 14.1544 18.4558 14.79 17.8689C15.7388 16.9895 15.4013 15.7745 15.3844 15.3245Z" fill="#B5E1EA"/>
<path d="M14.747 16.5956C14.8239 16.3518 14.4226 15.2174 14.3889 14.7374C14.3851 14.6962 14.3345 14.6774 14.3139 14.7093C13.9445 15.2381 12.7595 18.0562 12.7595 18.0562C12.8833 18.1049 13.4608 18.1556 13.7514 17.9981C14.2464 17.7281 14.5689 17.1599 14.747 16.5956ZM17.8801 18.0187C17.9083 18.0224 17.9251 18.0543 17.9083 18.0768L17.312 18.8812C17.312 18.8812 14.9045 20.3737 14.567 20.0081C14.4414 19.8731 14.6626 19.0049 15.2964 18.4181C16.2451 17.5387 17.4339 17.9681 17.8801 18.0187Z" fill="#B5E1EA"/>
<path d="M16.4476 18.5608C16.697 18.5027 17.867 18.9921 18.3339 19.0502C18.3732 19.0558 18.3901 19.1064 18.3582 19.1271C17.8201 19.4683 14.9495 20.4208 14.9495 20.4208C14.9101 20.2933 14.7957 19.7233 14.9739 19.4477C15.2795 18.9733 15.872 18.6939 16.4476 18.5608Z" fill="#B5E1EA"/>
<path d="M12.6149 19.8825L15.6806 16.7381C15.6962 16.7225 15.7172 16.7136 15.7393 16.7133C15.7613 16.7129 15.7827 16.7212 15.7987 16.7363C15.8148 16.7514 15.8244 16.7722 15.8254 16.7942C15.8265 16.8162 15.8189 16.8378 15.8043 16.8543L12.8193 20.0756C12.7668 20.1318 12.6787 20.1356 12.6206 20.0831C12.5934 20.0576 12.5774 20.0225 12.576 19.9853C12.5746 19.9481 12.5879 19.9118 12.6131 19.8843C12.6131 19.8843 12.6149 19.8843 12.6149 19.8825ZM12.9449 20.2143L16.3856 17.4843C16.4231 17.4562 16.4756 17.4618 16.5037 17.4975C16.5318 17.5331 16.5262 17.5856 16.4924 17.6156L13.1212 20.43C13.0612 20.4787 12.9731 20.4712 12.9243 20.4131C12.9008 20.3846 12.8894 20.348 12.8926 20.3112C12.8957 20.2744 12.9132 20.2403 12.9412 20.2162C12.9431 20.2162 12.9449 20.2143 12.9449 20.2143ZM13.2768 20.5462L17.0924 18.2343C17.1111 18.2227 17.1336 18.2189 17.1551 18.2238C17.1765 18.2287 17.1951 18.2419 17.2068 18.2606C17.2185 18.2792 17.2223 18.3018 17.2174 18.3232C17.2125 18.3447 17.1992 18.3633 17.1806 18.375L13.4249 20.7843C13.3593 20.8256 13.2731 20.8068 13.2318 20.7412C13.1906 20.6756 13.2093 20.5893 13.2749 20.5481L13.2768 20.5462Z" fill="#59C6D9"/>
<path d="M13.4718 20.7169L17.9531 19.1401C17.9943 19.1251 18.0412 19.1476 18.0562 19.1888C18.0712 19.2301 18.0487 19.2751 18.0093 19.2901L13.5693 20.9776C13.5522 20.9842 13.534 20.9874 13.5157 20.9869C13.4973 20.9864 13.4793 20.9823 13.4625 20.9748C13.4458 20.9673 13.4307 20.9566 13.4181 20.9432C13.4056 20.9298 13.3958 20.9141 13.3893 20.8969C13.3827 20.8798 13.3796 20.8616 13.38 20.8433C13.3805 20.8249 13.3846 20.8069 13.3921 20.7901C13.3996 20.7734 13.4103 20.7583 13.4237 20.7457C13.4371 20.7332 13.4528 20.7234 13.47 20.7169C13.47 20.7188 13.4718 20.7188 13.4718 20.7169ZM12.2868 19.5544L14.9775 15.9938C15.0056 15.9582 15.0562 15.9507 15.0918 15.9788C15.1275 16.0051 15.135 16.0557 15.1087 16.0913L12.5118 19.7194C12.5012 19.7344 12.4877 19.7472 12.4721 19.7569C12.4565 19.7667 12.4392 19.7732 12.421 19.7762C12.4029 19.7791 12.3843 19.7785 12.3664 19.7742C12.3485 19.7699 12.3317 19.7622 12.3168 19.7513C12.3018 19.7407 12.2891 19.7272 12.2794 19.7116C12.2696 19.696 12.2631 19.6786 12.2601 19.6605C12.2572 19.6423 12.2578 19.6238 12.2621 19.6059C12.2664 19.588 12.2741 19.5712 12.285 19.5563C12.285 19.5563 12.285 19.5544 12.2868 19.5544Z" fill="#59C6D9"/>
<path d="M12.1087 19.4044L14.1262 15.0938C14.1431 15.0582 14.1844 15.0432 14.22 15.06C14.2537 15.0769 14.2687 15.1163 14.2537 15.1519L12.3637 19.5207C12.3565 19.5375 12.346 19.5528 12.3328 19.5656C12.3196 19.5784 12.3041 19.5885 12.287 19.5953C12.2699 19.6021 12.2517 19.6054 12.2333 19.6052C12.215 19.6049 12.1969 19.601 12.18 19.5938C12.1631 19.5865 12.1478 19.576 12.135 19.5628C12.1222 19.5497 12.1122 19.5341 12.1054 19.517C12.0986 19.5 12.0952 19.4817 12.0955 19.4634C12.0957 19.445 12.0996 19.4269 12.1069 19.41C12.1087 19.4063 12.1087 19.4044 12.1087 19.4044Z" fill="#59C6D9"/>
<path d="M14.3682 20.5799L12.5757 18.6449C12.5232 18.5887 12.527 18.5006 12.5832 18.4462C12.6395 18.3937 12.7276 18.3974 12.782 18.4537L14.5745 20.3887C14.627 20.4449 14.6232 20.5331 14.567 20.5874C14.5107 20.6418 14.4226 20.6362 14.3682 20.5799Z" fill="#59C6D9"/>
<path d="M13.6555 20.9251L12.9186 20.1301L12.9055 20.1169L12.1686 19.3201L10.6649 20.9419C10.2899 21.2888 10.2674 21.8757 10.6142 22.2507C10.9611 22.6257 11.548 22.6482 11.923 22.3013L13.6555 20.9251Z" fill="#DA4437"/>
<path d="M12.7708 21.6263L11.4001 20.1488L12.1689 19.3201L13.6558 20.9251L12.7708 21.6263Z" fill="#FAC11C"/>
<path d="M13.6276 10.3274L1.02759 22.8393" stroke="#2F2F2F" stroke-width="0.9375" stroke-miterlimit="10" stroke-linecap="round" stroke-linejoin="round"/>
<path d="M15.9113 1.64246L12.2157 5.32309M19.2413 0.474336L11.7957 7.86746M21.0019 0.864336L12.5325 9.27559M22.0707 1.94059L13.6013 10.3518M23.1394 3.01684L14.67 11.4281M23.5182 4.78121L16.0725 12.1743M22.2525 8.17684L18.72 11.6831M23.2594 4.94246L18.7463 0.397461M22.845 6.67871L17.0063 0.798711M22.4325 8.41496L15.6 1.53559M21.3544 9.48371L14.3569 2.43746M20.2782 10.5543L13.2807 3.50621M17.4638 12.0243L11.9325 6.46309M19.1438 11.565L12.3694 4.74184" stroke="#B5E1EA" stroke-width="0.375" stroke-miterlimit="10" stroke-linejoin="round"/>
<path d="M20.3382 10.3518C18.4782 12.1987 15.7876 12.5062 13.6257 10.3293C11.4638 8.15244 11.7882 5.46369 13.6482 3.61681C15.5082 1.76994 18.9582 -0.890687 21.9207 2.09056C24.8832 5.07181 22.1982 8.50306 20.3382 10.3518Z" stroke="#6D4D41" stroke-width="0.9375" stroke-miterlimit="10" stroke-linecap="round" stroke-linejoin="round"/>
<path d="M11.1374 12.7987L10.4924 13.44M7.71556 16.1981L7.07056 16.8375" stroke="#DA4437" stroke-width="0.9375" stroke-miterlimit="10" stroke-linejoin="round"/>
<path d="M6.60759 17.2987L1.02759 22.8393" stroke="#6D4D41" stroke-width="1.875" stroke-miterlimit="10" stroke-linecap="round" stroke-linejoin="round"/>
<path d="M5.18433 17.3851L5.94745 16.6276C6.12471 16.452 6.36434 16.3538 6.61385 16.3545C6.86336 16.3552 7.10243 16.4547 7.2787 16.6313C7.4543 16.8086 7.5525 17.0482 7.5518 17.2977C7.5511 17.5473 7.45155 17.7863 7.27495 17.9626L6.51183 18.7201L5.18433 17.3851Z" fill="#DA4437"/>
<path d="M4.51587 18.0442L5.22912 17.3361L6.55943 18.6759L5.84637 19.3839L4.51587 18.0442Z" fill="#2F2F2F"/>
</g>
<defs>
<clipPath id="clip0_33_1575">
<rect width="24" height="24" fill="white"/>
</clipPath>
</defs>
</svg>
