<svg width="24" height="24" viewBox="0 0 24 24" fill="none" xmlns="http://www.w3.org/2000/svg">
<path d="M22.8009 18.8576C22.8009 19.2476 22.7142 19.6484 22.5301 20.0384C22.3459 20.4284 22.1076 20.7967 21.7934 21.1434C21.2626 21.7284 20.6776 22.1509 20.0167 22.4217C19.3667 22.6926 18.6626 22.8334 17.9042 22.8334C16.7992 22.8334 15.6184 22.5734 14.3726 22.0426C13.1267 21.5117 11.8809 20.7967 10.6459 19.8976C9.40008 18.9876 8.21925 17.9801 7.09258 16.8642C5.97675 15.7376 4.96925 14.5567 4.07008 13.3217C3.18175 12.0867 2.46675 10.8517 1.94675 9.62758C1.42675 8.39258 1.16675 7.21175 1.16675 6.08508C1.16675 5.34841 1.29675 4.64425 1.55675 3.99425C1.81675 3.33341 2.22841 2.72675 2.80258 2.18508C3.49591 1.50258 4.25425 1.16675 5.05592 1.16675C5.35925 1.16675 5.66258 1.23175 5.93341 1.36175C6.21508 1.49175 6.46425 1.68675 6.65925 1.96841L9.17258 5.51091C9.36758 5.78175 9.50841 6.03091 9.60591 6.26925C9.70341 6.49675 9.75758 6.72425 9.75758 6.93008C9.75758 7.19008 9.68175 7.45008 9.53008 7.69925C9.38925 7.94841 9.18341 8.20841 8.92341 8.46841L8.10008 9.32425C7.98091 9.44341 7.92675 9.58425 7.92675 9.75758C7.92675 9.84425 7.93758 9.92008 7.95925 10.0067C7.99175 10.0934 8.02425 10.1584 8.04592 10.2234C8.24092 10.5809 8.57675 11.0467 9.05341 11.6101C9.54091 12.1734 10.0609 12.7476 10.6242 13.3217C11.2092 13.8959 11.7726 14.4267 12.3467 14.9142C12.9101 15.3909 13.3759 15.7159 13.7442 15.9109C13.7984 15.9326 13.8634 15.9651 13.9392 15.9976C14.0259 16.0301 14.1126 16.0409 14.2101 16.0409C14.3942 16.0409 14.5351 15.9759 14.6542 15.8567L15.4776 15.0442C15.7484 14.7734 16.0084 14.5676 16.2576 14.4376C16.5067 14.2859 16.7559 14.2101 17.0267 14.2101C17.2326 14.2101 17.4492 14.2534 17.6876 14.3509C17.9259 14.4484 18.1751 14.5892 18.4459 14.7734L22.0317 17.3192C22.3134 17.5142 22.5084 17.7417 22.6276 18.0126C22.7359 18.2834 22.8009 18.5542 22.8009 18.8576Z" stroke="#3F3F3F" stroke-width="1.625" stroke-miterlimit="10"/>
</svg>
