<svg width="24" height="24" viewBox="0 0 24 24" fill="none" xmlns="http://www.w3.org/2000/svg">
<path d="M16.8208 12.8513C15.7164 10.3838 14.6476 8.80876 14.6476 8.80876V8.80688H8.6345C8.27638 9.50813 7.67638 10.6463 6.81388 12.2344C5.76575 14.1656 3.39575 20.3813 3.39575 20.3813C3.39575 20.3813 3.5345 21.2025 5.552 21.5719C6.89075 21.8175 7.29388 21.6075 8.41325 22.215C9.40138 22.7513 10.0858 23.2519 11.7601 23.2519C13.4345 23.2519 13.8564 22.8375 15.2195 22.215C16.3801 21.6844 17.0064 21.9431 18.3395 21.6694C21.1651 21.09 21.3508 19.0238 21.3508 19.0238C21.3508 19.0238 19.1908 18.1444 16.8208 12.8513Z" fill="#1565C0"/>
<path d="M15.4764 1.27495C15.4802 1.12308 15.3808 0.988076 15.2364 0.946826L14.5877 0.763076C14.3964 0.708701 14.2033 0.832451 14.1714 1.02933L13.8508 3.00745C13.8508 3.00745 12.8571 3.17808 11.7564 4.07433L11.6833 4.07245C10.5827 3.1762 9.56645 3.00745 9.56645 3.00745L9.24395 1.02745C9.23634 0.981485 9.21916 0.937631 9.19352 0.898733C9.16788 0.859835 9.13435 0.826761 9.0951 0.801657C9.05585 0.776552 9.01176 0.759978 8.9657 0.753008C8.91963 0.746039 8.87262 0.74883 8.8277 0.761201L8.17895 0.944951C8.0327 0.986201 7.93332 1.1212 7.93895 1.27308C7.95582 1.8787 8.01395 3.46308 8.18832 5.06808C8.36645 6.71058 8.75082 8.38683 8.69832 8.97745C8.69832 8.97745 10.2058 9.1837 11.6627 9.1987V9.20058H11.7602V9.1987C13.2152 9.18558 14.7246 8.97745 14.7246 8.97745C14.6721 8.38683 15.0564 6.71058 15.2346 5.06808C15.4014 3.46308 15.4596 1.88058 15.4764 1.27495Z" fill="#1565C0"/>
<path d="M11.85 9.40493C10.1437 9.40493 8.97559 9.26618 8.57809 9.22118C8.55899 9.21888 8.54053 9.21284 8.52377 9.20339C8.50702 9.19394 8.49229 9.18127 8.48044 9.16611C8.4686 9.15095 8.45986 9.1336 8.45474 9.11506C8.44961 9.09652 8.4482 9.07714 8.45059 9.05806L8.56309 8.25555C8.56779 8.21786 8.58715 8.18353 8.61698 8.16002C8.64682 8.1365 8.68471 8.12569 8.72246 8.12993C9.10309 8.17118 10.2393 8.27806 11.85 8.27806C13.3987 8.27806 14.3306 8.17868 14.6625 8.13743C14.7393 8.12806 14.8106 8.18056 14.8237 8.25743L14.91 9.05431C14.9231 9.13493 14.8687 9.2118 14.7862 9.22305C14.4318 9.26805 13.515 9.40493 11.85 9.40493Z" fill="url(#paint0_linear_33_1413)"/>
<path d="M13.8414 3.01695C13.6839 2.99258 13.2357 3.16883 13.1195 3.21383C12.6076 3.4107 12.1839 3.68258 11.777 4.0482C11.7751 4.05008 11.7507 4.06508 11.7207 4.06508C11.6907 4.06508 11.6701 4.0482 11.6682 4.04633C11.2614 3.6807 10.8339 3.41258 10.322 3.2157C10.2039 3.1707 9.75574 2.99445 9.60012 3.01883C9.41262 3.04695 9.63949 3.25508 9.97887 3.55133C10.3201 3.84758 10.802 4.26383 11.2107 4.63133C11.3514 4.75695 11.5389 4.8132 11.7207 4.8282C11.9026 4.8132 12.0901 4.75695 12.2307 4.63133C12.6395 4.26383 13.1214 3.84758 13.4626 3.55133C13.8039 3.25508 14.0289 3.04508 13.8414 3.01695Z" fill="#0D47A1"/>
<path d="M7.42505 21.7612C8.12442 16.4681 9.9638 11.8518 9.9638 11.8518C9.9638 11.8518 9.3488 17.2931 9.21192 22.6499C9.21192 22.6499 8.67755 22.3124 8.18817 22.0968C7.6988 21.8812 7.42505 21.7612 7.42505 21.7612Z" fill="url(#paint1_linear_33_1413)"/>
<path d="M14.5219 22.5488C14.0625 19.7157 13.7869 16.8957 13.92 14.6082C13.92 14.6082 14.9607 18.9188 16.455 21.87C16.455 21.87 15.9469 21.9432 15.4613 22.1119C15.1219 22.23 14.5219 22.5488 14.5219 22.5488Z" fill="url(#paint2_linear_33_1413)"/>
<defs>
<linearGradient id="paint0_linear_33_1413" x1="7.05315" y1="8.76556" x2="16.1546" y2="8.76556" gradientUnits="userSpaceOnUse">
<stop stop-color="#03A9F4"/>
<stop offset="0.061" stop-color="#20B4F7"/>
<stop offset="0.147" stop-color="#42C1FA"/>
<stop offset="0.235" stop-color="#5DCBFC"/>
<stop offset="0.323" stop-color="#71D2FE"/>
<stop offset="0.414" stop-color="#7CD7FF"/>
<stop offset="0.509" stop-color="#80D8FF"/>
<stop offset="0.609" stop-color="#7DD7FF"/>
<stop offset="0.696" stop-color="#72D3FE"/>
<stop offset="0.777" stop-color="#60CCFC"/>
<stop offset="0.856" stop-color="#47C3FA"/>
<stop offset="0.931" stop-color="#27B7F7"/>
<stop offset="1" stop-color="#03A9F4"/>
</linearGradient>
<linearGradient id="paint1_linear_33_1413" x1="8.33011" y1="22.1174" x2="9.66286" y2="12.1769" gradientUnits="userSpaceOnUse">
<stop offset="0.297" stop-color="#0D47A1"/>
<stop offset="1" stop-color="#0D47A1" stop-opacity="0.2"/>
</linearGradient>
<linearGradient id="paint2_linear_33_1413" x1="15.5211" y1="22.5235" x2="14.4368" y2="14.6082" gradientUnits="userSpaceOnUse">
<stop offset="0.297" stop-color="#0D47A1"/>
<stop offset="1" stop-color="#0D47A1" stop-opacity="0.2"/>
</linearGradient>
</defs>
</svg>
