<svg width="28" height="28" viewBox="0 0 28 28" fill="none" xmlns="http://www.w3.org/2000/svg">
<path d="M13.9866 0.666504C6.62663 0.666504 0.666626 6.63984 0.666626 13.9998C0.666626 21.3598 6.62663 27.3332 13.9866 27.3332C21.36 27.3332 27.3333 21.3598 27.3333 13.9998C27.3333 6.63984 21.36 0.666504 13.9866 0.666504ZM9.33329 8.6665C10.44 8.6665 11.3333 9.55984 11.3333 10.6665C11.3333 11.7732 10.44 12.6665 9.33329 12.6665C8.22663 12.6665 7.33329 11.7732 7.33329 10.6665C7.33329 9.55984 8.22663 8.6665 9.33329 8.6665ZM20.28 17.6265C19.0666 20.2265 16.72 21.9998 14 21.9998C11.28 21.9998 8.93329 20.2265 7.71996 17.6265C7.50663 17.1865 7.82663 16.6665 8.31996 16.6665H19.68C20.1733 16.6665 20.4933 17.1865 20.28 17.6265ZM18.6666 12.6665C17.56 12.6665 16.6666 11.7732 16.6666 10.6665C16.6666 9.55984 17.56 8.6665 18.6666 8.6665C19.7733 8.6665 20.6666 9.55984 20.6666 10.6665C20.6666 11.7732 19.7733 12.6665 18.6666 12.6665Z" fill="#909090"/>
</svg>
