<svg width="24" height="24" viewBox="0 0 24 24" fill="none" xmlns="http://www.w3.org/2000/svg">
<g clip-path="url(#clip0_33_1424)">
<path d="M12.9019 5.75061C12.9019 5.75061 12.9019 11.5687 13.6519 14.2744C14.0212 15.6075 14.4825 16.4475 15.5887 15.6169L19.8806 15.5737C20.985 16.4175 21.7762 15.6094 22.0144 14.2387C22.5769 11.0062 22.5769 5.75061 22.5769 5.75061H12.9019Z" fill="#6D4C41"/>
<path d="M16.7812 12.4913C16.7812 12.4913 13.7812 12.2194 12 15.2888V18.5925L16.7812 12.4913Z" fill="#651FFF"/>
<path d="M24 24.0994L12 24.1032V16.575C12 14.2725 13.7212 12.8757 15.9487 12.4913C17.3944 12.2419 18.8025 12.3338 20.0887 12.6375C22.1944 13.1382 24 14.4432 24 16.575V24.0994Z" fill="#651FFF"/>
<path d="M0 24.0994L12 24.1032V16.575C12 14.2725 10.1962 12.8757 7.96875 12.4913C6.52313 12.2419 5.1975 12.3338 3.91125 12.6375C1.80563 13.1382 0 14.445 0 16.575V24.0994Z" fill="#00BFA5"/>
<path d="M7.21875 12.4913C7.21875 12.4913 10.2806 12.2194 12 15.2888V18.5925L7.21875 12.4913Z" fill="#00BFA5"/>
<path d="M6.27344 13.8976C5.54781 13.8976 4.96094 13.3107 4.96094 12.5851V11.3813H7.58594V12.5851C7.58594 13.3107 6.99719 13.8976 6.27344 13.8976Z" fill="#E59900"/>
<path d="M10.2227 6.97876C10.2227 6.97876 10.9465 7.10438 10.9465 7.88438C10.9465 8.57251 10.4177 8.84438 9.88898 8.84438V6.97876H10.2227ZM2.32336 6.97876C2.32336 6.97876 1.59961 7.10438 1.59961 7.88438C1.59961 8.57251 2.12836 8.84438 2.65711 8.84438V6.97876H2.32336Z" fill="#E59600"/>
<path d="M6.27344 1.87109C3.15156 1.87109 2.33594 4.28984 2.33594 7.68922C2.33594 11.2142 4.60094 12.1255 6.27344 12.1255C7.92156 12.1255 10.2109 11.2405 10.2109 7.68922C10.2109 4.29172 9.39344 1.87109 6.27344 1.87109Z" fill="#FCC21B"/>
<path d="M4.97619 8.00624C4.97619 8.35686 4.74182 8.64186 4.45119 8.64186C4.16057 8.64186 3.92432 8.35686 3.92432 8.00624C3.92432 7.65374 4.16057 7.37061 4.45119 7.37061C4.74182 7.36874 4.97619 7.65374 4.97619 8.00624ZM7.56932 8.00624C7.56932 8.35686 7.80369 8.64186 8.09619 8.64186C8.38682 8.64186 8.62307 8.35686 8.62307 8.00624C8.62307 7.65374 8.38682 7.37061 8.09619 7.37061C7.80369 7.36874 7.56932 7.65374 7.56932 8.00624Z" fill="#444444"/>
<path d="M7.41372 10.1532H5.13372C5.00247 10.1532 4.94622 10.2413 5.03247 10.3726C5.15435 10.5563 5.60247 10.9107 6.27185 10.9107C6.94122 10.9107 7.39122 10.5563 7.51122 10.3726C7.59935 10.2413 7.5431 10.1532 7.41372 10.1532Z" fill="#513F35"/>
<path d="M6.82308 9.18376C6.62995 9.23814 6.42745 9.26626 6.27183 9.26626C6.1162 9.26626 5.91558 9.24001 5.72058 9.18376C5.63808 9.15939 5.60433 9.23814 5.63433 9.29064C5.6962 9.39939 5.9437 9.61689 6.26995 9.61689C6.5962 9.61689 6.84558 9.39939 6.90558 9.29064C6.93933 9.23814 6.90745 9.15939 6.82308 9.18376Z" fill="#E59600"/>
<path d="M6.3677 1.4268C6.3677 1.4268 6.3077 1.42493 6.27957 1.42493C6.25332 1.42493 6.19145 1.4268 6.19145 1.4268C2.82582 1.49243 1.80957 3.5193 1.80957 4.92368C1.80957 6.28868 1.81145 7.2918 1.81145 7.2918C1.81145 7.2918 1.86582 7.23555 1.96332 7.15868C2.06832 7.07618 2.18645 7.03118 2.18645 7.03118L2.35707 8.17118L3.4802 5.82555C3.4877 5.81055 3.5027 5.80305 3.5177 5.80493L4.18332 5.87805C4.8527 5.95305 5.52395 5.98868 6.1952 5.99055V5.99243H6.37145V5.99055C7.0427 5.98868 7.71394 5.95305 8.38332 5.87805L9.04895 5.80493C9.06582 5.80305 9.08082 5.81243 9.08644 5.82555L10.2096 8.17118L10.3802 7.03118C10.3802 7.03118 10.4964 7.07805 10.6033 7.15868C10.7027 7.23555 10.7552 7.2918 10.7552 7.2918C10.7552 7.2918 10.7571 6.28868 10.7571 4.92368C10.7514 3.5193 9.7352 1.49243 6.3677 1.4268Z" fill="#6D4C41"/>
<path d="M0 18.21H1.53562V24.0993H0V18.21ZM22.5262 18.21H24.0262V24.0993H22.5262V18.21Z" fill="#FCC21B"/>
<path d="M17.7524 13.8976C17.0268 13.8976 16.4399 13.3107 16.4399 12.5851V11.4639H19.0649V12.5851C19.0649 13.3107 18.4762 13.8976 17.7524 13.8976Z" fill="#E59900"/>
<path d="M17.7525 10.0706C20.4242 10.0706 22.59 8.12392 22.59 5.72251C22.59 3.32111 20.4242 1.37439 17.7525 1.37439C15.0809 1.37439 12.915 3.32111 12.915 5.72251C12.915 8.12392 15.0809 10.0706 17.7525 10.0706Z" fill="#6D4C41"/>
<path d="M17.7524 2.42065C14.7786 2.42065 14.0005 4.7269 14.0005 7.96503C14.0005 11.2032 16.3067 12.1913 17.7524 12.1913C19.198 12.1913 21.5042 11.2032 21.5042 7.96503C21.5042 4.7269 20.7261 2.42065 17.7524 2.42065Z" fill="#FCC21B"/>
<path d="M16.468 8.09814C16.468 8.44501 16.2355 8.72626 15.9468 8.72626C15.6599 8.72626 15.4255 8.44501 15.4255 8.09814C15.4255 7.74939 15.6599 7.46814 15.9468 7.46814C16.2355 7.46814 16.468 7.75126 16.468 8.09814ZM19.0349 8.09814C19.0349 8.44501 19.2674 8.72626 19.5562 8.72626C19.843 8.72626 20.0774 8.44501 20.0774 8.09814C20.0774 7.74939 19.843 7.46814 19.5562 7.46814C19.2674 7.46814 19.0349 7.75126 19.0349 8.09814Z" fill="#444444"/>
<path d="M18.8866 4.96307C18.4909 5.34369 16.5278 7.11369 13.8203 7.57494V3.94494C13.8203 3.94494 14.9884 1.62744 17.7916 1.62744C20.5947 1.62744 21.7628 4.00494 21.7628 4.00494V7.57494C21.7628 7.57494 19.9253 6.86994 19.0028 4.98557C18.9983 4.97478 18.9911 4.96528 18.982 4.9579C18.973 4.95053 18.9622 4.94551 18.9507 4.94328C18.9392 4.94106 18.9273 4.9417 18.9162 4.94515C18.905 4.9486 18.8948 4.95475 18.8866 4.96307Z" fill="#6D4C41"/>
<path d="M18.8796 10.2244H16.6221C16.4928 10.2244 16.4365 10.3106 16.5228 10.4419C16.6428 10.6237 17.0871 10.9744 17.749 10.9744C18.4109 10.9744 18.8571 10.6237 18.9753 10.4419C19.0653 10.3106 19.009 10.2244 18.8796 10.2244Z" fill="#4C3734"/>
<path d="M18.2961 9.33562C18.1048 9.38999 17.9042 9.41624 17.7504 9.41624C17.5967 9.41624 17.398 9.38999 17.2048 9.33562C17.1223 9.31312 17.0904 9.38999 17.1204 9.44249C17.1804 9.54937 17.4261 9.76499 17.7504 9.76499C18.0748 9.76499 18.3186 9.54937 18.3805 9.44249C18.4104 9.38999 18.3786 9.31124 18.2961 9.33562Z" fill="#E48C15"/>
<path d="M16.0425 24.21H7.95747C7.89935 24.21 7.95747 22.8712 7.95747 22.8712C7.95747 21.0262 10.3068 20.4075 11.1225 20.4075H12.8793C13.695 20.4075 16.0425 21.0262 16.0425 22.8712V22.9237C16.0425 22.9893 16.1006 24.21 16.0425 24.21Z" fill="#B2DFDB"/>
<path d="M11.9983 21.8062C11.765 21.8062 11.5414 21.7136 11.3765 21.5486C11.2115 21.3837 11.1189 21.1601 11.1189 20.9268V20.2518H12.8795V20.9268C12.8795 21.4125 12.4858 21.8062 11.9983 21.8062Z" fill="#E59900"/>
<path d="M12.0001 19.7607C14.1437 19.7607 15.8814 18.1245 15.8814 16.1063C15.8814 14.088 14.1437 12.4519 12.0001 12.4519C9.85659 12.4519 8.1189 14.088 8.1189 16.1063C8.1189 18.1245 9.85659 19.7607 12.0001 19.7607Z" fill="#6D4C41"/>
<path d="M15.1783 17.01C15.1783 17.01 15.7689 17.1131 15.7689 17.7488C15.7689 18.3113 15.3377 18.5325 14.9064 18.5325V17.01H15.1783ZM8.82207 17.01C8.82207 17.01 8.23145 17.1131 8.23145 17.7488C8.23145 18.3113 8.6627 18.5325 9.09395 18.5325V17.01H8.82207Z" fill="#E59600"/>
<path d="M14.25 15.0994C13.7118 14.43 12.7856 14.1412 12 14.1412C11.2162 14.1412 10.2881 14.4281 9.74996 15.0994C9.22308 15.7556 8.94746 16.6012 8.95121 17.7375C8.95496 18.6544 9.19121 19.3575 9.85496 19.9125C10.47 20.4262 11.1825 20.7037 11.9531 20.7037C12.7106 20.7037 13.5468 20.4394 14.1393 19.9181C14.79 19.3462 15.0412 18.6544 15.045 17.7394C15.0525 16.6012 14.775 15.7556 14.25 15.0994Z" fill="#FCC21B"/>
<path d="M12.4446 18.4256C12.2871 18.4706 12.1259 18.4912 12.0002 18.4912C11.8746 18.4912 11.7115 18.4687 11.5559 18.4256C11.4884 18.4069 11.4621 18.4706 11.4865 18.5119C11.5371 18.6 11.7359 18.7762 12.0002 18.7762C12.2646 18.7762 12.4652 18.6 12.514 18.5119C12.5384 18.4706 12.5121 18.4069 12.4446 18.4256Z" fill="#E59600"/>
<path d="M12.9208 19.1494H11.0796C10.9746 19.1494 10.9277 19.2207 10.9989 19.3275C11.0964 19.4757 11.4602 19.7625 12.0002 19.7625C12.5421 19.7625 12.9039 19.4757 13.0033 19.3275C13.0727 19.2207 13.0277 19.1494 12.9208 19.1494Z" fill="#513F35"/>
<path d="M10.7813 17.7636C10.7813 18.0355 10.5994 18.2549 10.3744 18.2549C10.1494 18.2549 9.96753 18.0355 9.96753 17.7636C9.96753 17.4918 10.1513 17.2705 10.3744 17.2705C10.5994 17.2724 10.7813 17.4918 10.7813 17.7636ZM14.0344 17.7636C14.0344 18.0355 13.8525 18.2549 13.6275 18.2549C13.4025 18.2549 13.2207 18.0355 13.2207 17.7636C13.2207 17.4918 13.4044 17.2705 13.6275 17.2705C13.8525 17.2724 14.0344 17.4918 14.0344 17.7636Z" fill="#444444"/>
<path d="M8.78435 17.5538C8.78435 17.5538 9.66935 16.6276 9.99372 16.3163C10.0143 16.2957 10.0481 16.3126 10.0443 16.3426C10.0312 16.4719 10.0218 16.6126 10.0162 16.6969C10.0143 16.7363 10.05 16.7682 10.0893 16.7607C10.725 16.6407 11.3362 16.3763 11.4993 16.3013C11.52 16.2919 11.5406 16.3088 11.5406 16.3294C11.5368 16.4476 11.5387 16.5601 11.5406 16.6276C11.5406 16.6651 11.5743 16.6932 11.6118 16.6876C12.195 16.5976 12.6806 16.3594 12.8418 16.2732C12.8793 16.2526 12.9206 16.2488 12.9618 16.2638C13.2637 16.3726 13.6312 16.5863 13.7643 16.6651C13.7943 16.6819 13.8318 16.6726 13.8487 16.6426C13.8993 16.5507 13.9706 16.4101 14.0025 16.3426C14.0118 16.3238 14.0362 16.3201 14.0493 16.3332C14.5237 16.8019 15.2175 17.5519 15.2175 17.5519L15.7068 15.9807C15.7068 15.9807 14.9137 13.1851 12.1593 13.1851C9.40497 13.1851 8.3606 16.1701 8.3606 16.1701L8.78435 17.5538Z" fill="#6D4C41"/>
</g>
<defs>
<clipPath id="clip0_33_1424">
<rect width="24" height="24" fill="white"/>
</clipPath>
</defs>
</svg>
