<svg width="24" height="24" viewBox="0 0 24 24" fill="none" xmlns="http://www.w3.org/2000/svg">
<path d="M17.5243 9.7033C17.5243 6.5983 15.1467 4.07263 12.2233 4.07263C9.3 4.07263 6.922 6.5983 6.922 9.70463C6.923 9.85963 6.99666 13.5743 11.2427 20.1196C11.3301 20.2991 11.4625 20.4529 11.6271 20.5658C11.7917 20.6788 11.9828 20.7472 12.1817 20.7643C12.795 20.7643 13.213 20.089 13.2537 20.0203C17.5267 13.471 17.5267 9.85097 17.5243 9.7033ZM12.2233 11.971C11.7564 11.971 11.2999 11.8325 10.9116 11.573C10.5233 11.3136 10.2207 10.9448 10.042 10.5134C9.86333 10.082 9.81659 9.60723 9.90772 9.14923C9.99885 8.69124 10.2237 8.27055 10.554 7.94037C10.8842 7.61019 11.3049 7.38535 11.7629 7.29429C12.2209 7.20323 12.6957 7.25003 13.1271 7.42878C13.5585 7.60753 13.9272 7.9102 14.1866 8.29851C14.446 8.68681 14.5844 9.14332 14.5843 9.6103C14.5836 10.2362 14.3346 10.8363 13.892 11.2789C13.4494 11.7214 12.8493 11.9703 12.2233 11.971Z" fill="#D22F27"/>
<path d="M17.5244 9.7033C17.5244 6.5983 15.1467 4.07263 12.2234 4.07263C11.7881 4.07449 11.355 4.13332 10.9351 4.24763C13.7334 4.39763 15.9684 6.8553 15.9684 9.8643C15.9704 10.012 15.9704 13.632 11.6974 20.181C11.6399 20.2749 11.5745 20.3637 11.5021 20.4466C11.5879 20.543 11.6925 20.6208 11.8094 20.6755C11.9263 20.7302 12.0531 20.7605 12.1821 20.7646C12.7951 20.7646 13.2131 20.089 13.2537 20.0203C17.5267 13.471 17.5267 9.85097 17.5244 9.7033Z" fill="#EA5A47"/>
<path d="M12.1817 20.7646C11.9827 20.7475 11.7916 20.6791 11.6271 20.566C11.4625 20.453 11.33 20.2992 11.2427 20.1196C6.99666 13.5743 6.923 9.85997 6.922 9.70463C6.922 6.59797 9.3 4.07263 12.2233 4.07263C15.1467 4.07263 17.5243 6.5983 17.5243 9.7033C17.5267 9.8513 17.5267 13.4713 13.2537 20.02C13.213 20.089 12.7947 20.7646 12.1817 20.7646Z" stroke="#3F3F3F" stroke-width="0.666667" stroke-linecap="round" stroke-linejoin="round"/>
<path d="M12.2233 11.9709C11.7563 11.9709 11.2998 11.8324 10.9116 11.573C10.5233 11.3135 10.2207 10.9448 10.042 10.5133C9.86331 10.0819 9.81657 9.60717 9.9077 9.14917C9.99882 8.69117 10.2237 8.27048 10.5539 7.94031C10.8842 7.61013 11.3049 7.38529 11.7629 7.29423C12.2209 7.20317 12.6956 7.24997 13.1271 7.42872C13.5585 7.60747 13.9272 7.91014 14.1866 8.29844C14.446 8.68675 14.5844 9.14326 14.5843 9.61024C14.5836 10.2362 14.3346 10.8363 13.892 11.2788C13.4494 11.7214 12.8492 11.9703 12.2233 11.9709Z" stroke="#3F3F3F" stroke-width="0.666667" stroke-linecap="round" stroke-linejoin="round"/>
</svg>
