<svg width="31" height="31" viewBox="0 0 31 31" fill="none" xmlns="http://www.w3.org/2000/svg">
<g clip-path="url(#clip0_3_114)">
<path d="M4.18585 7.87656C4.9953 7.31081 6.21549 7.41931 6.94227 8.0195L6.10871 6.80792C5.43791 5.85122 5.67816 4.81617 6.63571 4.1445C7.59327 3.47542 10.3066 5.27428 10.3066 5.27428C9.6298 4.30811 9.75638 3.08361 10.7225 2.40592C11.1871 2.08135 11.7614 1.95445 12.3194 2.05311C12.8774 2.15176 13.3735 2.4679 13.6985 2.93206L22.6713 15.6076L21.5278 26.6944L11.9841 23.2138L3.65971 10.8715C3.49739 10.6404 3.38223 10.3795 3.32082 10.1039C3.2594 9.82818 3.25295 9.54311 3.30181 9.26494C3.35068 8.98677 3.45391 8.72097 3.60561 8.48273C3.7573 8.2445 3.95448 8.03851 4.18585 7.87656Z" fill="#EF9645"/>
<path d="M2.32073 14.9283C2.32073 14.9283 1.34596 13.5074 2.76765 12.5335C4.18762 11.5596 5.16154 12.9796 5.16154 12.9796L9.68323 19.5739C9.8391 19.3139 10.0096 19.0573 10.1999 18.8041L3.92412 9.65308C3.92412 9.65308 2.95021 8.23311 4.37104 7.2592C5.79101 6.28528 6.76493 7.70525 6.76493 7.70525L12.6678 16.3138C12.8874 16.1347 13.1122 15.9547 13.3438 15.7782L6.50057 5.79703C6.50057 5.79703 5.52665 4.37706 6.94748 3.40314C8.36746 2.42922 9.34137 3.8492 9.34137 3.8492L16.1846 13.8286C16.4361 13.6745 16.6849 13.541 16.9347 13.3998L10.5383 4.07222C10.5383 4.07222 9.5644 2.65225 10.9844 1.67833C12.4043 0.704417 13.3783 2.12439 13.3783 2.12439L20.1414 11.9876L21.1696 13.4876C16.9088 16.4102 16.5032 21.9084 18.9376 25.4588C19.4241 26.1692 20.1345 25.6827 20.1345 25.6827C17.2128 21.421 18.1049 16.6324 22.3665 13.7106L21.1102 7.42281C21.1102 7.42281 20.6409 5.76603 22.2968 5.29586C23.9536 4.82656 24.4237 6.48333 24.4237 6.48333L25.8747 10.7923C26.4499 12.5008 27.0622 14.2032 27.8725 15.8135C30.1605 20.3601 28.7939 26.0108 24.4797 28.9704C19.7737 32.197 13.3404 30.9974 10.1129 26.2923L2.32073 14.9283Z" fill="#FFDC5D"/>
<path d="M10.3333 27.5918C6.88887 27.5918 3.40826 24.1112 3.40826 20.6667C3.40826 20.1905 3.05951 19.8056 2.58331 19.8056C2.10712 19.8056 1.68604 20.1905 1.68604 20.6667C1.68604 25.8334 5.16665 29.314 10.3333 29.314C10.8095 29.314 11.1944 28.8929 11.1944 28.4167C11.1944 27.9405 10.8095 27.5918 10.3333 27.5918Z" fill="#5DADEC"/>
<path d="M6.02778 29.2778C3.44444 29.2778 1.72222 27.5556 1.72222 24.9722C1.72222 24.7438 1.6315 24.5248 1.47001 24.3633C1.30852 24.2018 1.08949 24.1111 0.861111 24.1111C0.63273 24.1111 0.413703 24.2018 0.252214 24.3633C0.090724 24.5248 0 24.7438 0 24.9722C0 28.4167 2.58333 31 6.02778 31C6.25616 31 6.47519 30.9093 6.63668 30.7478C6.79817 30.5863 6.88889 30.3673 6.88889 30.1389C6.88889 29.9105 6.79817 29.6915 6.63668 29.53C6.47519 29.3685 6.25616 29.2778 6.02778 29.2778ZM20.6667 1.72223C20.4383 1.72223 20.2193 1.81295 20.0578 1.97444C19.8963 2.13593 19.8056 2.35496 19.8056 2.58334C19.8056 2.81172 19.8963 3.03075 20.0578 3.19224C20.2193 3.35373 20.4383 3.44445 20.6667 3.44445C24.1111 3.44445 27.5556 6.53498 27.5556 10.3333C27.5556 10.5617 27.6463 10.7807 27.8078 10.9422C27.9693 11.1037 28.1883 11.1945 28.4167 11.1945C28.6451 11.1945 28.8641 11.1037 29.0256 10.9422C29.1871 10.7807 29.2778 10.5617 29.2778 10.3333C29.2778 5.58517 25.8333 1.72223 20.6667 1.72223Z" fill="#5DADEC"/>
<path d="M24.9722 0.0361938C24.4969 0.0361938 24.1111 0.385805 24.1111 0.861138C24.1111 1.33647 24.4969 1.75842 24.9722 1.75842C27.5555 1.75842 29.2416 3.67439 29.2416 6.0278C29.2416 6.50314 29.6627 6.88892 30.1389 6.88892C30.6151 6.88892 30.9638 6.50314 30.9638 6.0278C30.9638 2.72372 28.4166 0.0361938 24.9722 0.0361938Z" fill="#5DADEC"/>
</g>
<defs>
<clipPath id="clip0_3_114">
<rect width="31" height="31" fill="white"/>
</clipPath>
</defs>
</svg>
