<svg width="24" height="24" viewBox="0 0 24 24" fill="none" xmlns="http://www.w3.org/2000/svg">
<path d="M11.9662 15.4725C12.2193 14.745 12.4068 12.1181 9.52684 10.8994C6.91684 9.79502 3.57184 11.4563 3.19872 11.8425C2.56122 12.5063 2.08497 18.0938 2.08497 18.0938C2.04217 18.5142 2.03026 18.9372 2.04934 19.3594C2.06622 19.7213 2.12059 20.1188 2.39247 20.3606C2.56122 20.5106 2.78997 20.5744 3.01497 20.5856C3.58309 20.6156 4.11747 20.34 4.59372 20.0269C5.06247 20.8444 5.50122 21.6075 5.61184 21.7781C5.86872 22.1813 6.14997 22.4175 6.43497 22.455C7.02372 22.53 7.97247 22.3013 8.02684 21.105C8.06622 20.2331 7.54497 19.3856 7.54497 19.3856C8.07747 19.3125 9.53809 21.255 10.0331 21.6413C10.4043 21.93 11.0062 21.9619 11.3943 21.6956C11.7412 21.4556 12.0262 21.1313 11.835 20.3213C11.5781 19.2356 10.7362 18.4031 10.1868 18.0881C10.1868 18.0881 11.7131 16.2 11.9662 15.4725Z" fill="#EDA600"/>
<path d="M21.7746 13.4888C21.2946 13.5281 20.3871 13.4644 19.9371 13.2525C18.1483 12.4125 12.1765 8.54251 12.1765 8.54251C11.5277 8.19001 9.49896 7.92001 8.69271 8.12063L3.48208 9.93376C2.37021 10.1363 1.47958 10.8881 1.50583 12.5025C1.50958 12.7369 1.53583 13.2206 1.54708 13.4738C1.59396 14.0738 1.72146 15.6206 1.36708 16.575C0.969583 17.6494 0.669583 18.6 1.26396 18.8606C2.43958 19.3781 3.17646 18.8175 3.50271 18.3C4.33521 16.9838 4.73646 14.775 4.75896 13.9219C4.76201 13.8082 4.75385 13.6946 4.73458 13.5825C4.73458 13.5769 4.73458 13.5694 4.73646 13.5638C4.73646 13.5638 8.06646 13.56 9.91521 13.0594C9.91521 13.0594 10.6765 14.085 10.4646 15.4519C10.3502 16.1944 15.4765 22.4719 17.3008 22.4719C19.1252 22.4719 18.9602 22.2544 20.3365 22.2544C20.9665 22.2544 21.604 22.6613 21.9471 22.4719C22.5152 22.1606 23.074 20.4469 23.074 17.6156C23.074 14.7844 22.5283 13.4269 21.7746 13.4888Z" fill="#FFCA28"/>
<path d="M10.8936 14.5856C10.9574 14.3812 11.0867 13.9894 11.2686 13.5787C11.533 12.9844 15.1574 10.4587 15.1574 10.4587C14.7036 10.1287 13.4492 9.35437 13.4492 9.35437C13.4492 9.35437 11.0211 11.49 10.1755 12.8325C10.1324 12.9 8.89673 11.8012 8.35111 11.8331C7.80548 11.865 6.38236 12.4162 5.55173 12.8512C5.33423 12.9656 5.06986 12.8944 4.92736 12.6937C4.79423 12.5044 4.62736 12.3225 4.48486 12.2119C4.34986 12.105 4.10423 11.9944 3.86611 11.9344C3.72548 11.9006 3.63923 12.0806 3.74986 12.1744C4.28236 12.63 4.67048 13.3106 4.72673 13.9275L4.88236 14.7206C5.33048 14.6644 9.83048 15.2512 9.83048 15.2512C9.83048 15.2512 12.118 15.3469 12.1667 15.2325C12.2024 15.15 11.5217 14.7356 10.8936 14.5856Z" fill="#EDA600"/>
<path d="M4.88428 21.1575L2.73928 22.4119C2.45803 22.5769 2.1149 22.3294 2.18053 22.0106L2.6924 19.5787C2.74303 19.3425 2.84053 19.1175 2.98303 18.9206L15.5137 1.76812C15.6637 1.55999 15.9149 1.44937 16.168 1.48124C16.4324 1.51499 16.798 1.63124 17.2349 1.94437C17.6718 2.25937 17.8968 2.56874 18.013 2.80874C18.0671 2.92246 18.0895 3.04862 18.0779 3.17399C18.0664 3.29936 18.0213 3.41931 17.9474 3.52124L5.41678 20.6737C5.27464 20.8701 5.09332 21.0348 4.88428 21.1575Z" fill="#78909C"/>
<path d="M6.0226 19.8432L3.64885 18.0076L2.98322 18.9188C2.84135 19.1154 2.74234 19.3396 2.6926 19.5769L2.18072 22.0088C2.11322 22.3276 2.45635 22.5751 2.73947 22.4101L4.88447 21.1557C5.09393 21.0336 5.27536 20.8688 5.41697 20.6719L6.0226 19.8432Z" fill="#78909C"/>
<path d="M15.9151 15.6938C15.9151 15.6938 10.4682 14.5144 8.56508 15.2926C7.6257 15.6769 6.48383 16.6782 5.8782 16.8432C5.27258 17.0082 4.67445 17.1582 4.17008 17.3007C2.9457 17.6419 3.15758 19.5094 4.40445 20.1338C5.50508 20.6832 5.77133 20.3288 6.73508 20.2126C8.17883 20.0382 8.60445 19.8038 9.20445 19.7269C10.0651 19.6163 11.8895 19.8563 12.5963 20.2594C13.2001 20.6026 14.792 22.4963 17.3495 22.4963C20.1245 22.4663 20.3345 21.2194 21.3938 19.6144C21.5888 19.3163 15.9151 15.6938 15.9151 15.6938Z" fill="#FFCA28"/>
<path d="M21.3058 21.84C21.032 21.7631 20.6926 21.6656 20.3326 21.6656C19.6483 21.6656 19.3014 21.7181 18.9676 21.7706C18.7014 21.8119 18.4258 21.8531 17.9308 21.8737H17.9158L17.9008 21.8756C17.7189 21.8925 17.5351 21.9019 17.3495 21.9037C15.5514 21.9037 14.0758 20.9044 13.307 20.2669C13.0651 20.0662 12.2776 19.5169 11.5876 19.3181C10.0408 18.8719 8.44513 19.2975 8.18263 19.3669C7.80013 19.4662 6.78201 19.9387 5.89326 20.0494C5.49201 20.1 4.52638 20.0512 3.86263 19.0687C3.55888 18.6187 3.64138 17.9887 3.80076 17.4694C3.44451 17.8725 3.14638 18.4162 2.17888 18.6525C1.88076 18.7256 1.39513 18.7087 1.11388 18.5812C1.08576 18.5681 0.982634 18.5194 0.988259 18.5831C0.992009 18.6431 1.05951 18.7256 1.09888 18.7687C1.60138 19.3237 2.59888 19.4119 3.27388 18.8156C3.31326 19.3556 3.62638 19.92 4.20013 20.2669C5.28763 20.925 6.62826 20.5706 7.07826 20.4619C8.15638 20.2031 8.46013 19.8656 9.06013 19.7925C9.40326 19.7512 10.697 19.5581 11.9814 20.1431C13.1345 20.6681 14.792 22.4944 17.3495 22.4944C17.567 22.4925 17.7658 22.4812 17.9533 22.4644C19.1045 22.4194 19.1495 22.2581 20.3326 22.2581C20.8445 22.2581 21.3601 22.5262 21.7201 22.5262C21.8045 22.5262 21.8795 22.5112 21.9433 22.4756C22.1345 22.3706 22.3239 22.1044 22.4926 21.6919C21.9095 22.155 21.4445 21.8794 21.3058 21.84Z" fill="#EDA600"/>
<path d="M7.86208 13.6143C8.00458 13.7137 8.1977 13.6837 8.3027 13.5449C9.51395 11.9512 16.1852 2.9212 16.564 2.4337C16.8077 2.12057 16.0765 1.59557 15.7258 2.0212L7.78145 13.1643C7.6802 13.3106 7.71583 13.5131 7.86208 13.6143Z" fill="#82AEC0"/>
</svg>
