<svg width="18" height="18" viewBox="0 0 18 18" fill="none" xmlns="http://www.w3.org/2000/svg">
<path d="M9 9.00012C9.4125 9.00012 9.76575 8.85312 10.0598 8.55912C10.3538 8.26512 10.5005 7.91212 10.5 7.50012C10.5 7.08762 10.353 6.73437 10.059 6.44037C9.765 6.14637 9.412 5.99962 9 6.00012C8.5875 6.00012 8.23425 6.14712 7.94025 6.44112C7.64625 6.73512 7.4995 7.08812 7.5 7.50012C7.5 7.91262 7.647 8.26587 7.941 8.55987C8.235 8.85387 8.588 9.00062 9 9.00012ZM9 16.2189C8.9 16.2189 8.8 16.2001 8.7 16.1626C8.6 16.1251 8.5125 16.0751 8.4375 16.0126C6.6125 14.4001 5.25 12.9031 4.35 11.5216C3.45 10.1401 3 8.84962 3 7.65012C3 5.77512 3.60325 4.28137 4.80975 3.16887C6.01625 2.05637 7.413 1.50012 9 1.50012C10.5875 1.50012 11.9845 2.05637 13.191 3.16887C14.3975 4.28137 15.0005 5.77512 15 7.65012C15 8.85012 14.55 10.1409 13.65 11.5224C12.75 12.9039 11.3875 14.4006 9.5625 16.0126C9.4875 16.0751 9.4 16.1251 9.3 16.1626C9.2 16.2001 9.1 16.2189 9 16.2189Z" fill="#3F3F3F"/>
</svg>
