<svg width="16" height="20" viewBox="0 0 16 20" fill="none" xmlns="http://www.w3.org/2000/svg">
<path d="M8 10.0001C8.55 10.0001 9.021 9.80412 9.413 9.41212C9.805 9.02012 10.0007 8.54946 10 8.00012C10 7.45012 9.804 6.97912 9.412 6.58712C9.02 6.19512 8.54933 5.99946 8 6.00012C7.45 6.00012 6.979 6.19612 6.587 6.58812C6.195 6.98012 5.99933 7.45079 6 8.00012C6 8.55012 6.196 9.02112 6.588 9.41312C6.98 9.80512 7.45067 10.0008 8 10.0001ZM8 19.6251C7.86667 19.6251 7.73333 19.6001 7.6 19.5501C7.46667 19.5001 7.35 19.4335 7.25 19.3501C4.81667 17.2001 3 15.2041 1.8 13.3621C0.6 11.5201 0 9.79946 0 8.20012C0 5.70012 0.804333 3.70846 2.413 2.22512C4.02167 0.741789 5.884 0.00012207 8 0.00012207C10.1167 0.00012207 11.9793 0.741789 13.588 2.22512C15.1967 3.70846 16.0007 5.70012 16 8.20012C16 9.80012 15.4 11.5211 14.2 13.3631C13 15.2051 11.1833 17.2008 8.75 19.3501C8.65 19.4335 8.53333 19.5001 8.4 19.5501C8.26667 19.6001 8.13333 19.6251 8 19.6251Z" fill="#E20B00"/>
</svg>
