<svg width="31" height="31" viewBox="0 0 31 31" fill="none" xmlns="http://www.w3.org/2000/svg">
<path d="M28.4167 10.3333V16.7916C28.4167 21.9583 25.8334 24.5416 20.6667 24.5416H20.0209C19.6205 24.5416 19.233 24.7353 18.9875 25.0583L17.05 27.6416C16.1975 28.7783 14.8025 28.7783 13.95 27.6416L12.0125 25.0583C11.8059 24.7741 11.328 24.5416 10.9792 24.5416H10.3334C5.16671 24.5416 2.58337 23.2499 2.58337 16.7916V10.3333C2.58337 5.16659 5.16671 2.58325 10.3334 2.58325H15.5" stroke="#EBEBEB" stroke-width="1.9375" stroke-miterlimit="10" stroke-linecap="round" stroke-linejoin="round"/>
<path d="M19.6334 5.96746C19.2072 4.68871 19.7109 3.11288 21.1059 2.67371C21.8293 2.45413 22.7334 2.63496 23.2501 3.31954C23.7409 2.60913 24.6709 2.45413 25.3943 2.67371C26.7893 3.09996 27.293 4.68871 26.8668 5.96746C26.208 7.99538 23.8959 9.04163 23.2501 9.04163C22.6043 9.04163 20.318 8.00829 19.6334 5.96746Z" stroke="#FF0606" stroke-width="1.9375" stroke-linecap="round" stroke-linejoin="round"/>
<path d="M20.6614 14.2083H20.6743M15.4934 14.2083H15.5064M10.3268 14.2083H10.3371" stroke="#EBEBEB" stroke-width="2.58333" stroke-linecap="round" stroke-linejoin="round"/>
</svg>
