<svg width="24" height="24" viewBox="0 0 24 24" fill="none" xmlns="http://www.w3.org/2000/svg">
<g clip-path="url(#clip0_33_1414)">
<path d="M22.8994 14.8406C22.7344 14.6643 22.6725 14.3568 22.6332 14.1243C22.5 13.3387 22.1663 12.6168 21.5775 12.0731C20.7919 11.3493 19.71 10.8656 18.555 10.6556C18.39 10.6256 18.1988 10.6124 18.0282 10.6499C18.0244 10.6499 18.0207 10.6481 18.0188 10.6481C17.9007 10.6494 17.788 10.6975 17.7054 10.7819C17.6228 10.8663 17.577 10.98 17.5782 11.0981L17.6588 18.2381C17.2013 17.9587 16.6538 17.8443 16.0969 17.8706C15.135 17.9156 14.1525 18.3637 13.5769 19.0481C13.3838 19.2768 13.1982 19.5712 13.1025 19.8581C13.005 20.1543 12.9525 20.5743 13.0238 20.8837C13.1757 21.5268 13.5919 22.0931 14.1844 22.3912C14.3475 22.4737 14.5275 22.5487 14.7038 22.5937C15.6769 22.8468 16.7232 22.4081 17.4469 21.7649C18.0038 21.2681 18.54 20.4524 18.5494 19.6762C18.5532 19.6537 18.5625 19.6349 18.5606 19.6106L18.4988 14.0156C18.5738 14.0137 18.6432 14.0081 18.6975 14.0081C19.005 14.0062 19.3125 14.0306 19.6144 14.0887C20.1769 14.1993 20.7432 14.4187 21.15 14.8349C21.555 15.2512 21.93 15.6581 22.5319 15.7668C22.7832 15.8118 23.2163 15.7349 23.3775 15.5156C23.64 15.1556 23.0738 15.0243 22.8994 14.8406ZM10.89 16.7512C10.7419 16.5618 10.7044 16.2506 10.6819 16.0162C10.6125 15.2231 10.3388 14.4749 9.79315 13.8862C9.06753 13.1024 8.02878 12.5324 6.89628 12.2306C6.73315 12.1874 6.54378 12.1593 6.3694 12.1837C6.36753 12.1837 6.36378 12.1818 6.36003 12.1818C6.1144 12.1649 5.90253 12.3487 5.88565 12.5943L5.3944 19.7174C4.96128 19.4043 4.4269 19.2468 3.87003 19.2262C2.90815 19.1924 1.8919 19.5618 1.26378 20.1974C1.05378 20.4112 0.841901 20.6887 0.727526 20.9662C0.607526 21.2549 0.519401 21.6693 0.566276 21.9824C0.665651 22.6349 1.0369 23.2331 1.60315 23.5799C1.75878 23.6756 1.93128 23.7637 2.10378 23.8237C3.05253 24.1537 4.13065 23.7993 4.90315 23.2162C5.4994 22.7662 6.09753 21.9956 6.1669 21.2231C6.17253 21.2006 6.18378 21.1818 6.18378 21.1593L6.56815 15.5756C6.64315 15.5793 6.71253 15.5812 6.7669 15.5831C7.07253 15.6056 7.37815 15.6543 7.6744 15.7368C8.22565 15.8906 8.77315 16.1568 9.1444 16.6031C9.51565 17.0493 9.85315 17.4862 10.4457 17.6418C10.6932 17.7074 11.1338 17.6643 11.31 17.4581C11.6025 17.1243 11.0475 16.9499 10.89 16.7512ZM9.92815 11.7356C10.0894 11.8199 10.2694 11.8987 10.4438 11.9474C11.4094 12.2174 12.465 11.7974 13.2 11.1693C13.7663 10.6837 14.3175 9.87743 14.3382 9.10306C14.3419 9.08056 14.3513 9.06181 14.3513 9.03744L14.3925 3.44056C14.4694 3.44056 14.5369 3.43494 14.5913 3.43681C14.8988 3.43868 15.2063 3.47056 15.5063 3.53431C16.0669 3.65431 16.6313 3.88493 17.0288 4.30868C17.4263 4.73056 17.7919 5.14681 18.3919 5.26494C18.6413 5.31556 19.08 5.24619 19.2432 5.02869C19.5094 4.67431 18.9432 4.53181 18.7763 4.34431C18.6132 4.16431 18.5569 3.85681 18.5232 3.62431C18.405 2.83493 18.0844 2.10743 17.505 1.55243C16.7307 0.81556 15.6582 0.311185 14.5088 0.0805597C14.3438 0.0468097 14.1525 0.0299347 13.98 0.0636847C13.9782 0.0636847 13.9744 0.0618097 13.9707 0.0618097C13.8529 0.0610593 13.7396 0.107003 13.6556 0.189584C13.5716 0.272165 13.5238 0.384656 13.5225 0.502435L13.4719 7.64243C13.02 7.35556 12.4763 7.23181 11.9194 7.24681C10.9557 7.27306 9.96565 7.70431 9.37878 8.37743C9.18003 8.60431 8.99065 8.89494 8.8894 9.17806C8.78628 9.47431 8.72628 9.89244 8.7919 10.2018C8.9344 10.8506 9.34128 11.4243 9.92815 11.7356Z" fill="#00FFF0"/>
</g>
<defs>
<clipPath id="clip0_33_1414">
<rect width="24" height="24" fill="white"/>
</clipPath>
</defs>
</svg>
