<svg width="24" height="24" viewBox="0 0 24 24" fill="none" xmlns="http://www.w3.org/2000/svg">
<path d="M1.18689 12.4444V23.2669H22.9481V12.4031C22.9481 12.4031 18.5944 9.39936 18.3938 9.37124C18.1931 9.34311 12.345 3.98999 12.345 3.98999L5.89876 9.18936L1.18689 12.4444Z" fill="#F8C778"/>
<path d="M1.18689 12.4331H6.32439L6.31876 23.2556H7.17189L7.17751 10.08L12.2175 5.64375L17.3025 10.2938L17.2894 23.2556H18.0881L18.1013 12.3713L22.9481 12.405V11.7581L18.5269 9.38813L12.6131 4.1925L6.08439 9.28125L1.19064 11.8144L1.18689 12.4331Z" fill="#F5B03F"/>
<path d="M2.45622 7.98194C2.42247 8.03632 1.1156 11.6401 1.09122 11.7151C1.06685 11.7901 1.12872 11.8782 1.27872 11.8913C1.42872 11.9044 6.60185 11.8913 6.60185 11.8913L6.58685 9.68257C6.58685 9.68257 12.1406 4.68382 12.2025 4.68382C12.2643 4.68382 17.8612 9.81194 17.8743 9.88882C17.8875 9.96382 17.8987 11.8051 17.8987 11.8051C17.8987 11.8051 22.8206 11.8426 22.9218 11.8557C23.0231 11.8688 23.0475 11.7301 22.9593 11.4676C22.8712 11.2051 21.8437 8.03632 21.7687 7.98569C21.6937 7.93507 17.6362 7.93507 17.6362 7.93507C17.6362 7.93507 12.5531 3.25507 12.465 3.18007C12.3768 3.10507 12.1143 2.99069 11.8818 3.22319C11.6775 3.42757 6.60747 7.97257 6.60747 7.97257C6.60747 7.97257 2.49372 7.91819 2.45622 7.98194Z" fill="#A62714"/>
<path d="M8.23308 15.1106L8.2312 23.2631H16.1737V15.1106C16.1737 15.1106 8.23308 15.09 8.23308 15.1106Z" fill="#CF6150"/>
<path d="M0.682506 23.2969C0.751881 23.4019 1.56188 23.3531 3.72001 23.3644C5.87813 23.3756 6.50626 23.3719 6.61876 23.3494C6.72938 23.3269 6.81938 22.8413 6.74626 22.4194C6.66563 21.9563 6.38813 21.5194 5.93813 21.3788C5.33626 21.1913 4.96501 21.3638 4.67626 21.2625C4.38751 21.1631 3.54188 20.7394 2.68501 20.7956C1.95001 20.8425 1.42688 21.0581 0.971256 21.7294C0.481881 22.4513 0.637506 23.2294 0.682506 23.2969ZM23.6419 23.2519C23.7525 23.175 23.7431 21.045 22.2619 20.8819C21.15 20.76 20.8594 21.2381 20.6719 21.2381C20.4825 21.2381 19.7625 20.8875 18.7688 21.2719C17.5331 21.75 17.5556 23.1413 17.6006 23.2744C17.6456 23.4075 18.9244 23.3738 20.6813 23.385C22.4381 23.3963 23.4975 23.3531 23.6419 23.2519Z" fill="#7DB240"/>
<path d="M2.1694 13.0557H5.67378V15.8775H2.12253C2.12253 15.8775 2.14503 13.0782 2.1694 13.0557ZM2.12253 17.1957H5.6119V19.9257H2.09253C2.09253 19.9275 2.10753 17.1807 2.12253 17.1957Z" fill="#3E737C"/>
<path d="M2.70001 13.5713H5.08126V15.4369H2.67001C2.67001 15.4369 2.65314 13.5863 2.70001 13.5713ZM2.59314 17.6513H5.11126V19.4569H2.59314V17.6513Z" fill="#A7D0D7"/>
<path d="M18.6881 13.2225H22.1775V16.0293H18.6731C18.6731 16.0293 18.6881 13.1775 18.6881 13.2225Z" fill="#3E737C"/>
<path d="M19.1737 13.7081H21.6768V15.5288H19.1737V13.7081Z" fill="#A7D0D7"/>
<path d="M18.6432 17.3625H22.1176V20.0175H18.6432C18.6432 20.0175 18.6207 17.3869 18.6432 17.3625Z" fill="#3E737C"/>
<path d="M19.1888 17.8481V19.4869H21.57V17.8331C21.57 17.8331 19.1663 17.8256 19.1888 17.8481Z" fill="#A7D0D7"/>
<path d="M9.38627 23.2669L9.3844 15.9994H15.1032V23.2669H9.38627Z" fill="#3E737C"/>
<path d="M14.4263 17.4825V16.5262H10.0913V17.4825H14.4263ZM10.0913 17.9606H14.4263V20.4487H10.0913V17.9606ZM10.0913 20.9606H14.4263V22.2619H10.0913V20.9606Z" fill="#A7D0D7"/>
<path d="M12.0526 17.7468V22.6425H12.5476V17.6962C12.5476 17.6962 12.0863 17.7468 12.0526 17.7468ZM12.0863 7.51122C10.1419 7.5281 8.8388 8.97747 8.93818 10.8412C9.0338 12.6525 10.4719 13.7887 12.1351 13.7418C13.8826 13.6931 15.1351 12.2906 15.1838 10.6275C15.2326 8.96435 13.8826 7.49622 12.0863 7.51122Z" fill="#3E737C"/>
<path d="M12.0376 8.0719C10.4551 8.0719 9.39943 9.27565 9.46693 10.725C9.53068 12.1238 10.4719 13.1813 12.0882 13.1813C13.5713 13.1813 14.5463 11.9625 14.5763 10.7081C14.6082 9.3394 13.5863 8.0719 12.0376 8.0719Z" fill="white"/>
<path d="M11.5762 10.7737C11.5762 10.7737 10.6575 11.5462 10.6068 11.6362C10.5562 11.7262 10.5581 11.8743 10.68 11.9737C10.8037 12.0731 10.9256 12.015 11.0006 11.9568C11.0737 11.8987 12.0431 11.1037 12.0431 11.1037C12.0431 11.1037 12.3562 11.0981 12.4293 10.7268C12.4875 10.4306 12.2737 10.2918 12.2737 10.2918C12.2737 10.2918 12.24 8.51809 12.225 8.38684C12.2118 8.28934 12.1106 8.19746 12.0206 8.20684C11.9306 8.21434 11.8406 8.26496 11.8312 8.41121C11.8218 8.55746 11.8125 10.2562 11.8125 10.2562C11.8125 10.2562 11.6812 10.305 11.6081 10.4456C11.535 10.5843 11.5762 10.7737 11.5762 10.7737Z" fill="#2F2F2F"/>
</svg>
