<svg width="24" height="24" viewBox="0 0 24 24" fill="none" xmlns="http://www.w3.org/2000/svg">
<path d="M19.0294 8.34562C19.0294 4.31437 15.6788 1.05 11.6138 1.20187C7.9238 1.35562 4.91442 4.33125 4.7438 8.02312C4.57317 11.6456 7.12505 14.7075 10.5263 15.3694V17.5519H7.56755C7.19255 17.5519 6.88692 17.8575 6.88692 18.2325V19.5937C6.88692 19.9687 7.19255 20.2744 7.56755 20.2744H10.5263V22.6837C10.5263 23.0587 10.8319 23.3644 11.2069 23.3644H12.5682C12.9432 23.3644 13.2488 23.0587 13.2488 22.6837V20.2744H16.2075C16.5825 20.2744 16.8882 19.9687 16.8882 19.5937V18.2325C16.8882 17.8575 16.5825 17.5519 16.2075 17.5519H13.2469V15.3525C16.5469 14.7244 19.0294 11.8331 19.0294 8.34562ZM7.55067 8.26875C7.5863 5.265 9.94505 4.02 11.8875 4.05937C14.2819 4.10812 16.2169 5.7975 16.1738 8.34562C16.1325 10.71 14.2519 12.6319 11.8875 12.6319C9.52317 12.6319 7.5188 10.9219 7.55067 8.26875Z" fill="#9F0CC4"/>
<path d="M19.0313 7.73246C19.0313 3.70121 15.6806 0.436837 11.6156 0.588712C7.92563 0.742462 4.91438 3.71996 4.74563 7.40996C4.57501 11.0325 7.12501 13.7193 10.5281 14.3831V16.9406H7.56938C7.19438 16.9406 6.88876 17.2462 6.88876 17.6212V18.795C6.88876 19.17 7.20938 19.3856 7.58251 19.3856H10.5413L10.5281 21.885C10.5281 22.26 10.8338 22.5656 11.2088 22.5656H12.57C12.945 22.5656 13.2506 22.26 13.2506 21.885L13.2638 19.3856H16.2225C16.5975 19.3856 16.89 19.1681 16.89 18.795V17.6212C16.89 17.2462 16.5844 16.9406 16.2094 16.9406H13.2488V14.3643C16.5488 13.7362 19.0313 11.22 19.0313 7.73246ZM7.55063 7.65559C7.54876 4.85996 9.42563 3.17434 11.8669 3.17434C14.6288 3.17434 16.2431 5.34371 16.1925 7.85621C16.1475 10.2206 14.2519 12.0187 11.8875 12.0187C9.52313 12.0187 7.55251 10.3087 7.55063 7.65559Z" fill="#C71FFF"/>
<path opacity="0.3" d="M6.93556 3.43871C7.69119 2.51996 9.07681 1.49621 10.6031 1.31808C10.9799 1.26933 11.3549 1.27121 11.6718 1.40621C11.9062 1.50371 12.0974 1.75121 11.9493 1.99871C11.8368 2.19746 11.3606 2.32121 11.1374 2.37933C10.3518 2.53871 9.70306 2.73746 9.17994 3.03558C8.48431 3.43308 7.80556 4.17746 7.49431 4.67058C6.90181 5.60621 6.52681 6.28871 6.10306 5.94183C5.69056 5.63058 6.16306 4.37621 6.93556 3.43871ZM9.06931 17.4018C9.06931 17.2631 8.98494 17.2162 8.48244 17.2481C8.06431 17.2631 7.57681 17.325 7.45119 17.4806C7.32556 17.6512 7.29744 17.9906 7.28431 18.3918C7.28431 18.6862 7.28431 18.9487 7.42306 18.9487C7.61806 18.9487 7.61806 18.4706 7.75869 18.2081C8.03806 17.7112 9.06931 17.5875 9.06931 17.4018ZM10.9949 20.4843C10.8412 20.4843 10.7906 20.5706 10.8243 21.0937C10.8412 21.5287 10.8749 21.8906 11.0456 22.0218C11.2331 22.1531 11.6418 22.1737 12.0824 22.1887C12.4049 22.1887 12.5549 22.1962 12.5549 22.0518C12.5549 21.8493 12.2718 22.0031 11.7618 21.5943C11.2537 21.1875 11.1824 20.4843 10.9949 20.4843Z" fill="#3F3F3F"/>
</svg>
