<svg width="22" height="22" viewBox="0 0 22 22" fill="none" xmlns="http://www.w3.org/2000/svg">
<path d="M17.7083 0.5C18.7139 0.5 19.6784 0.899478 20.3894 1.61055C21.1005 2.32163 21.5 3.28605 21.5 4.29167V12.3172C21.4997 13.013 21.2232 13.6802 20.7312 14.1722L14.1733 20.7312C13.9296 20.9749 13.6402 21.1683 13.3217 21.3002C13.0032 21.4321 12.6619 21.5 12.3172 21.5H4.29167C3.28605 21.5 2.32163 21.1005 1.61055 20.3894C0.899478 19.6784 0.5 18.7139 0.5 17.7083V4.29167C0.5 3.28605 0.899478 2.32163 1.61055 1.61055C2.32163 0.899478 3.28605 0.5 4.29167 0.5H17.7083ZM17.7083 2.25H4.29167C3.75018 2.25 3.23088 2.4651 2.84799 2.84799C2.4651 3.23088 2.25 3.75018 2.25 4.29167V17.7083C2.25 18.8353 3.16467 19.75 4.29167 19.75H12.1667V16.1753C11.9064 16.2143 11.6444 16.24 11.3815 16.2523L11 16.2617C9.4663 16.2744 7.96665 15.8096 6.709 14.9317C6.51809 14.7995 6.38748 14.597 6.34591 14.3686C6.32533 14.2555 6.32722 14.1394 6.35149 14.0271C6.37575 13.9147 6.42191 13.8082 6.48733 13.7137C6.55275 13.6191 6.63615 13.5384 6.73277 13.4761C6.82938 13.4138 6.93732 13.3712 7.05042 13.3506C7.27884 13.309 7.51442 13.3599 7.70533 13.492C8.69 14.1733 9.782 14.5117 11 14.5117C11.539 14.5117 12.0535 14.4452 12.5447 14.3122C12.8357 13.7075 13.2821 13.191 13.8382 12.8154C14.3943 12.4399 15.0402 12.2188 15.7098 12.1748L15.9583 12.1667H19.75V4.29167C19.75 3.75018 19.5349 3.23088 19.152 2.84799C18.7691 2.4651 18.2498 2.25 17.7083 2.25ZM18.5122 13.9167H15.9595C15.4469 13.9167 14.9531 14.1096 14.5762 14.4569C14.1992 14.8042 13.9667 15.2806 13.9248 15.7915L13.9178 15.9583L13.9167 18.5122L18.5122 13.9167ZM7.5 6.04283C7.6949 6.03732 7.88894 6.07095 8.07062 6.14172C8.2523 6.2125 8.41794 6.319 8.55775 6.45491C8.69756 6.59082 8.8087 6.75338 8.88459 6.93299C8.96048 7.1126 8.99958 7.3056 8.99958 7.50058C8.99958 7.69557 8.96048 7.88857 8.88459 8.06818C8.8087 8.24778 8.69756 8.41035 8.55775 8.54626C8.41794 8.68217 8.2523 8.78866 8.07062 8.85944C7.88894 8.93022 7.6949 8.96385 7.5 8.95833C7.11323 8.95833 6.74229 8.80469 6.4688 8.5312C6.19531 8.25771 6.04167 7.88677 6.04167 7.5C6.04167 7.11323 6.19531 6.74229 6.4688 6.4688C6.74229 6.19531 7.11323 6.04283 7.5 6.04283ZM14.5 6.04283C14.6949 6.03732 14.8889 6.07095 15.0706 6.14172C15.2523 6.2125 15.4179 6.319 15.5578 6.45491C15.6976 6.59082 15.8087 6.75338 15.8846 6.93299C15.9605 7.1126 15.9996 7.3056 15.9996 7.50058C15.9996 7.69557 15.9605 7.88857 15.8846 8.06818C15.8087 8.24778 15.6976 8.41035 15.5578 8.54626C15.4179 8.68217 15.2523 8.78866 15.0706 8.85944C14.8889 8.93022 14.6949 8.96385 14.5 8.95833C14.1205 8.9476 13.7602 8.7893 13.4956 8.51709C13.2309 8.24488 13.0829 7.88021 13.0829 7.50058C13.0829 7.12095 13.2309 6.75628 13.4956 6.48407C13.7602 6.21186 14.1205 6.05357 14.5 6.04283Z" fill="white"/>
</svg>
