<svg width="40" height="40" viewBox="0 0 40 40" fill="none" xmlns="http://www.w3.org/2000/svg">
<rect x="0.4" y="0.4" width="39.2" height="39.2" rx="9.6" fill="#F0F0F0" stroke="#E6E6E6" stroke-width="0.8"/>
<mask id="mask0_3_30" style="mask-type:luminance" maskUnits="userSpaceOnUse" x="7" y="9" width="26" height="22">
<path d="M11.25 29.3334L8.33337 15.9167L14.1667 18.8334L20 10.6667L25.8334 18.8334L31.6667 15.9167L28.75 29.3334H11.25Z" fill="white" stroke="white" stroke-width="2.33333" stroke-linejoin="round"/>
<path d="M20.0001 25.25C20.6189 25.25 21.2124 25.0042 21.65 24.5666C22.0876 24.129 22.3334 23.5355 22.3334 22.9167C22.3334 22.2979 22.0876 21.7044 21.65 21.2668C21.2124 20.8292 20.6189 20.5834 20.0001 20.5834C19.3812 20.5834 18.7878 20.8292 18.3502 21.2668C17.9126 21.7044 17.6667 22.2979 17.6667 22.9167C17.6667 23.5355 17.9126 24.129 18.3502 24.5666C18.7878 25.0042 19.3812 25.25 20.0001 25.25Z" fill="black" stroke="black" stroke-width="2.33333" stroke-linejoin="round"/>
</mask>
<g mask="url(#mask0_3_30)">
<path d="M6 6H34V34H6V6Z" fill="#FFB800"/>
</g>
</svg>
