<svg width="31" height="31" viewBox="0 0 31 31" fill="none" xmlns="http://www.w3.org/2000/svg">
<path d="M15.6551 16.5075C15.5522 16.4946 15.4481 16.4946 15.3451 16.5075C14.2497 16.4707 13.2116 16.0094 12.4499 15.2213C11.6883 14.4332 11.2629 13.3798 11.2635 12.2838C11.2635 9.94588 13.1493 8.04713 15.5001 8.04713C16.6103 8.0452 17.6767 8.47959 18.4695 9.25665C19.2623 10.0337 19.7179 11.0912 19.7383 12.2011C19.7586 13.311 19.342 14.3845 18.5782 15.1901C17.8144 15.9956 16.7646 16.4688 15.6551 16.5075ZM24.206 25.0325C21.8322 27.2143 18.7242 28.4224 15.5001 28.4167C12.1418 28.4167 9.09348 27.138 6.79431 25.0325C6.92348 23.8184 7.69848 22.63 9.08056 21.7C12.6197 19.3492 18.4064 19.3492 21.9197 21.7C23.3018 22.63 24.0768 23.8184 24.206 25.0325Z" stroke="#EBEBEB" stroke-width="1.9375" stroke-linecap="round" stroke-linejoin="round"/>
<path d="M15.5 28.4166C22.6339 28.4166 28.4167 22.6338 28.4167 15.4999C28.4167 8.36604 22.6339 2.58325 15.5 2.58325C8.36617 2.58325 2.58337 8.36604 2.58337 15.4999C2.58337 22.6338 8.36617 28.4166 15.5 28.4166Z" stroke="#EBEBEB" stroke-width="1.9375" stroke-linecap="round" stroke-linejoin="round"/>
</svg>
