<svg width="31" height="31" viewBox="0 0 31 31" fill="none" xmlns="http://www.w3.org/2000/svg">
<path d="M15.6553 16.5075C15.5523 16.4946 15.4482 16.4946 15.3453 16.5075C14.2499 16.4707 13.2117 16.0094 12.4501 15.2213C11.6884 14.4332 11.263 13.3798 11.2636 12.2838C11.2636 9.94588 13.1494 8.04713 15.5003 8.04713C16.6104 8.0452 17.6768 8.47959 18.4696 9.25665C19.2624 10.0337 19.7181 11.0912 19.7384 12.2011C19.7587 13.311 19.3421 14.3845 18.5783 15.1901C17.8145 15.9956 16.7647 16.4688 15.6553 16.5075ZM24.2061 25.0325C21.8324 27.2143 18.7243 28.4224 15.5003 28.4167C12.1419 28.4167 9.0936 27.138 6.79443 25.0325C6.9236 23.8184 7.6986 22.63 9.08068 21.7C12.6199 19.3492 18.4065 19.3492 21.9198 21.7C23.3019 22.63 24.0769 23.8184 24.2061 25.0325Z" fill="white" stroke="white" stroke-width="1.9375" stroke-linecap="round" stroke-linejoin="round"/>
<path d="M15.5002 28.4166C22.634 28.4166 28.4168 22.6338 28.4168 15.4999C28.4168 8.36604 22.634 2.58325 15.5002 2.58325C8.36629 2.58325 2.5835 8.36604 2.5835 15.4999C2.5835 22.6338 8.36629 28.4166 15.5002 28.4166Z" stroke="white" stroke-width="1.9375" stroke-linecap="round" stroke-linejoin="round"/>
</svg>
