<svg width="24" height="24" viewBox="0 0 24 24" fill="none" xmlns="http://www.w3.org/2000/svg">
<path d="M20 20C16.55 20 12 22 12 22V11C12 11 16.5 9 21 9L20 20Z" fill="#5C6BC0"/>
<path d="M4 20C7.45 20 12 22 12 22V11C12 11 7.5 9 3 9L4 20Z" fill="#7986CB"/>
<path d="M12.0002 9.99988C14.2094 9.99988 16.0002 8.20902 16.0002 5.99988C16.0002 3.79074 14.2094 1.99988 12.0002 1.99988C9.7911 1.99988 8.00024 3.79074 8.00024 5.99988C8.00024 8.20902 9.7911 9.99988 12.0002 9.99988Z" fill="#FFB74D"/>
<path d="M20.4998 16.0001H20.9998C21.2998 16.0001 21.4998 15.8001 21.4998 15.5001V13.5001C21.4998 13.2001 21.2998 13.0001 20.9998 13.0001H20.4998C19.6498 13.0001 18.9998 13.6501 18.9998 14.5001C18.9998 15.3501 19.6498 16.0001 20.4998 16.0001ZM3.49976 13.0001H2.99976C2.69976 13.0001 2.49976 13.2001 2.49976 13.5001V15.5001C2.49976 15.8001 2.69976 16.0001 2.99976 16.0001H3.49976C4.34976 16.0001 4.99976 15.3501 4.99976 14.5001C4.99976 13.6501 4.34976 13.0001 3.49976 13.0001Z" fill="#FFB74D"/>
</svg>
