<svg width="22" height="21" viewBox="0 0 22 21" fill="none" xmlns="http://www.w3.org/2000/svg">
<path d="M2.60001 3.9999C1.96349 3.9999 1.35304 4.25276 0.902956 4.70285C0.452869 5.15293 0.200012 5.76338 0.200012 6.3999V18.3999C0.200012 19.0364 0.452869 19.6469 0.902956 20.097C1.35304 20.547 1.96349 20.7999 2.60001 20.7999H19.4C20.0365 20.7999 20.647 20.547 21.0971 20.097C21.5472 19.6469 21.8 19.0364 21.8 18.3999V6.3999C21.8 5.76338 21.5472 5.15293 21.0971 4.70285C20.647 4.25276 20.0365 3.9999 19.4 3.9999H2.60001ZM2.60001 17.1999L6.80001 11.7999L9.80001 15.3999L14 9.9999L19.4 17.1999H2.60001ZM18.2 0.399902C18.8365 0.399902 19.447 0.652759 19.8971 1.10285C20.3472 1.55293 20.6 2.16338 20.6 2.7999H1.40001C1.40001 2.16338 1.65287 1.55293 2.10296 1.10285C2.55304 0.652759 3.16349 0.399902 3.80001 0.399902H18.2Z" fill="#FAFAFA"/>
</svg>
