<svg width="13" height="13" viewBox="0 0 13 13" fill="none" xmlns="http://www.w3.org/2000/svg">
<path d="M6.50007 7.72519L2.21257 12.0127C2.05216 12.1731 1.84799 12.2533 1.60007 12.2533C1.35216 12.2533 1.14799 12.1731 0.987573 12.0127C0.827156 11.8523 0.746948 11.6481 0.746948 11.4002C0.746948 11.1523 0.827156 10.9481 0.987573 10.7877L5.27507 6.5002L0.987573 2.2127C0.827156 2.05228 0.746948 1.84811 0.746948 1.6002C0.746948 1.35228 0.827156 1.14811 0.987573 0.987695C1.14799 0.827278 1.35216 0.74707 1.60007 0.74707C1.84799 0.74707 2.05216 0.827278 2.21257 0.987695L6.50007 5.2752L10.7876 0.987695C10.948 0.827278 11.1522 0.74707 11.4001 0.74707C11.648 0.74707 11.8522 0.827278 12.0126 0.987695C12.173 1.14811 12.2532 1.35228 12.2532 1.6002C12.2532 1.84811 12.173 2.05228 12.0126 2.2127L7.72507 6.5002L12.0126 10.7877C12.173 10.9481 12.2532 11.1523 12.2532 11.4002C12.2532 11.6481 12.173 11.8523 12.0126 12.0127C11.8522 12.1731 11.648 12.2533 11.4001 12.2533C11.1522 12.2533 10.948 12.1731 10.7876 12.0127L6.50007 7.72519Z" fill="#6A6A6A"/>
</svg>
