<svg width="18" height="18" viewBox="0 0 18 18" fill="none" xmlns="http://www.w3.org/2000/svg">
<path fill-rule="evenodd" clip-rule="evenodd" d="M9 0C6.61305 0 4.32387 0.948212 2.63604 2.63604C0.948212 4.32387 0 6.61305 0 9C0 11.3869 0.948212 13.6761 2.63604 15.364C4.32387 17.0518 6.61305 18 9 18C11.3869 18 13.6761 17.0518 15.364 15.364C17.0518 13.6761 18 11.3869 18 9C18 6.61305 17.0518 4.32387 15.364 2.63604C13.6761 0.948212 11.3869 0 9 0ZM1.4364 7.0848C1.18272 8.08769 1.13097 9.13102 1.28417 10.1541C1.43737 11.1772 1.79245 12.1596 2.32877 13.0442C2.86509 13.9288 3.57194 14.6979 4.40821 15.3068C5.24447 15.9158 6.19347 16.3524 7.2 16.5912V15.8484L6 14.6484V12.8484L4.8 11.6484V10.2C4.8 10.0409 4.86321 9.88826 4.97574 9.77574C5.08826 9.66321 5.24087 9.6 5.4 9.6H10.2C10.6774 9.6 11.1352 9.78964 11.4728 10.1272C11.8104 10.4648 12 10.9226 12 11.4V12.0144C12.612 12.102 13.098 12.5868 13.1856 13.2H15.5736C16.1866 12.2404 16.5822 11.1582 16.7325 10.0294C16.8828 8.90069 16.7842 7.75272 16.4437 6.66611C16.1031 5.5795 15.5289 4.58061 14.7612 3.73956C13.9935 2.8985 13.0511 2.23567 12 1.7976V3C12 3.47739 11.8104 3.93523 11.4728 4.27279C11.1352 4.61036 10.6774 4.8 10.2 4.8H9C8.84087 4.8 8.68826 4.86321 8.57574 4.97574C8.46321 5.08826 8.4 5.24087 8.4 5.4C8.4 5.87739 8.21036 6.33523 7.87279 6.67279C7.53523 7.01036 7.07739 7.2 6.6 7.2H6V8.0484L5.472 8.5764C5.1345 8.91348 4.677 9.10282 4.2 9.10282C3.723 9.10282 3.2655 8.91348 2.928 8.5764L1.4352 7.0836L1.4364 7.0848Z" fill="#909090"/>
</svg>
